<?xml version="1.0" encoding="iso-8859-1"?>
<!-- Uploaded to: SVG Repo, www.svgrepo.com, Generator: SVG Repo Mixer Tools -->
<svg height="800px" width="800px" version="1.1" id="Layer_1" xmlns="http://www.w3.org/2000/svg" xmlns:xlink="http://www.w3.org/1999/xlink" 
	 viewBox="0 0 512 512" xml:space="preserve">
<path style="fill:#509FE8;" d="M418.472,0H93.528c-23.28,0-42.221,18.941-42.221,42.221v427.557
	c0,23.28,18.941,42.221,42.221,42.221h324.944c23.28,0,42.221-18.941,42.221-42.221V42.221C460.693,18.941,441.752,0,418.472,0z"/>
<path style="fill:#4D8CCF;" d="M67.875,469.779V42.221C67.875,18.941,86.816,0,110.096,0H93.528
	c-23.28,0-42.221,18.941-42.221,42.221v427.557c0,23.28,18.941,42.221,42.221,42.221h16.568
	C86.816,512,67.875,493.059,67.875,469.779z"/>
<path style="fill:#8E959F;" d="M392.818,34.205H119.182c-13.851,0-25.119,11.268-25.119,25.119v76.96
	c0,13.851,11.268,25.119,25.119,25.119h273.637c13.851,0,25.119-11.268,25.119-25.119v-76.96
	C417.937,45.473,406.669,34.205,392.818,34.205z"/>
<path style="fill:#D9DCDF;" d="M119.182,145.37c-5.01,0-9.086-4.076-9.086-9.086v-76.96c0-5.01,4.076-9.086,9.086-9.086h273.637
	c5.01,0,9.086,4.076,9.086,9.086v76.96c0,5.01-4.076,9.086-9.086,9.086H119.182z"/>
<g>
	<path style="fill:#424F5E;" d="M367.165,75.891h-25.653c-4.428,0-8.017-3.589-8.017-8.017s3.588-8.017,8.017-8.017h25.653
		c4.428,0,8.017,3.589,8.017,8.017S371.593,75.891,367.165,75.891z"/>
	<path style="fill:#424F5E;" d="M367.165,135.749h-25.653c-4.428,0-8.017-3.589-8.017-8.017c0-4.427,3.588-8.017,8.017-8.017h25.653
		c4.428,0,8.017,3.589,8.017,8.017C375.182,132.16,371.593,135.749,367.165,135.749z"/>
	<path style="fill:#424F5E;" d="M332.96,118.647c-4.428,0-8.017-3.589-8.017-8.017V84.977c0-4.427,3.588-8.017,8.017-8.017
		c4.428,0,8.017,3.589,8.017,8.017v25.653C340.977,115.058,337.389,118.647,332.96,118.647z"/>
	<path style="fill:#424F5E;" d="M375.716,118.647c-4.428,0-8.017-3.589-8.017-8.017V84.977c0-4.427,3.588-8.017,8.017-8.017
		c4.428,0,8.017,3.589,8.017,8.017v25.653C383.733,115.058,380.145,118.647,375.716,118.647z"/>
</g>
<path style="fill:#FFC44F;" d="M376.785,188.125h-85.511c-13.851,0-25.119,11.268-25.119,25.119v85.511
	c0,13.851,11.268,25.119,25.119,25.119h85.511c13.851,0,25.119-11.268,25.119-25.119v-85.511
	C401.904,199.394,390.636,188.125,376.785,188.125z"/>
<path style="fill:#F7B14D;" d="M274.171,298.756v-85.511c0-13.851,11.268-25.119,25.119-25.119h-8.017
	c-13.851,0-25.119,11.268-25.119,25.119v85.511c0,13.851,11.268,25.119,25.119,25.119h8.017
	C285.439,323.875,274.171,312.606,274.171,298.756z"/>
<path style="fill:#C6803F;" d="M368.234,264.017h-68.409c-4.428,0-8.017-3.589-8.017-8.017c0-4.427,3.588-8.017,8.017-8.017h68.409
	c4.428,0,8.017,3.589,8.017,8.017C376.251,260.427,372.662,264.017,368.234,264.017z"/>
<path style="fill:#FF8C78;" d="M376.785,342.046h-85.511c-13.851,0-25.119,11.268-25.119,25.119v85.511
	c0,13.851,11.268,25.119,25.119,25.119h85.511c13.851,0,25.119-11.268,25.119-25.119v-85.511
	C401.904,353.314,390.636,342.046,376.785,342.046z"/>
<g>
	<path style="fill:#DF7A6E;" d="M274.171,452.676v-85.511c0-13.851,11.268-25.119,25.119-25.119h-8.017
		c-13.851,0-25.119,11.268-25.119,25.119v85.511c0,13.851,11.268,25.119,25.119,25.119h8.017
		C285.439,477.795,274.171,466.527,274.171,452.676z"/>
	<path style="fill:#DF7A6E;" d="M368.234,400.835h-68.409c-4.428,0-8.017-3.589-8.017-8.017c0-4.427,3.588-8.017,8.017-8.017h68.409
		c4.428,0,8.017,3.589,8.017,8.017C376.251,397.246,372.662,400.835,368.234,400.835z"/>
	<path style="fill:#DF7A6E;" d="M368.234,435.04h-68.409c-4.428,0-8.017-3.589-8.017-8.017c0-4.427,3.588-8.017,8.017-8.017h68.409
		c4.428,0,8.017,3.589,8.017,8.017C376.251,431.45,372.662,435.04,368.234,435.04z"/>
</g>
<path style="fill:#FFC44F;" d="M220.727,188.125h-85.511c-13.851,0-25.119,11.268-25.119,25.119v85.511
	c0,13.851,11.268,25.119,25.119,25.119h85.511c13.851,0,25.119-11.268,25.119-25.119v-85.511
	C245.846,199.394,234.577,188.125,220.727,188.125z"/>
<path style="fill:#F7B14D;" d="M118.113,298.756v-85.511c0-13.851,11.268-25.119,25.119-25.119h-8.017
	c-13.851,0-25.119,11.268-25.119,25.119v85.511c0,13.851,11.268,25.119,25.119,25.119h8.017
	C129.381,323.875,118.113,312.606,118.113,298.756z"/>
<path style="fill:#C6803F;" d="M212.175,247.983h-26.188v-26.188c0-4.427-3.588-8.017-8.017-8.017s-8.017,3.589-8.017,8.017v26.188
	h-26.188c-4.428,0-8.017,3.589-8.017,8.017c0,4.427,3.588,8.017,8.017,8.017h26.188v26.188c0,4.427,3.588,8.017,8.017,8.017
	s8.017-3.589,8.017-8.017v-26.188h26.188c4.428,0,8.017-3.589,8.017-8.017C220.192,251.573,216.604,247.983,212.175,247.983z"/>
<path style="fill:#FFC44F;" d="M220.727,342.046h-85.511c-13.851,0-25.119,11.268-25.119,25.119v85.511
	c0,13.851,11.268,25.119,25.119,25.119h85.511c13.851,0,25.119-11.268,25.119-25.119v-85.511
	C245.846,353.314,234.577,342.046,220.727,342.046z"/>
<path style="fill:#F7B14D;" d="M118.113,452.676v-85.511c0-13.851,11.268-25.119,25.119-25.119h-8.017
	c-13.851,0-25.119,11.268-25.119,25.119v85.511c0,13.851,11.268,25.119,25.119,25.119h8.017
	C129.381,477.795,118.113,466.527,118.113,452.676z"/>
<path style="fill:#C6803F;" d="M189.309,409.921l18.518-18.518c3.131-3.131,3.131-8.207,0-11.337c-3.132-3.131-8.207-3.131-11.338,0
	l-18.518,18.516l-18.516-18.518c-3.131-3.131-8.206-3.132-11.338,0c-3.131,3.131-3.131,8.207,0,11.337l18.518,18.518l-18.518,18.518
	c-2.918,2.918-3.113,7.74-0.425,10.877c2.998,3.502,8.503,3.72,11.764,0.46l18.516-18.518l18.516,18.518
	c3.26,3.26,8.766,3.041,11.764-0.46c2.686-3.137,2.493-7.959-0.425-10.877L189.309,409.921z"/>
</svg>