<?xml version="1.0" encoding="iso-8859-1"?>
<!-- Uploaded to: SVG Repo, www.svgrepo.com, Generator: SVG Repo Mixer Tools -->
<svg height="800px" width="800px" version="1.1" id="Layer_1" xmlns="http://www.w3.org/2000/svg" xmlns:xlink="http://www.w3.org/1999/xlink" 
	 viewBox="0 0 512 512" xml:space="preserve">
<path style="fill:#808080;" d="M405.29,0H106.71c-21.74,0-39.425,17.686-39.425,39.425v433.15c0,21.74,17.686,39.425,39.425,39.425
	H405.29c21.74,0,39.425-17.686,39.425-39.425V39.425C444.715,17.686,427.029,0,405.29,0z"/>
<path style="fill:#666666;" d="M137.199,185.561c-17.391,0-31.54-14.149-31.54-31.54V59.4c0-17.391,14.149-31.54,31.54-31.54
	h237.602c17.391,0,31.54,14.149,31.54,31.54v94.62c0,17.391-14.149,31.54-31.54,31.54H137.199z"/>
<path style="fill:#AFF078;" d="M374.801,169.791H137.199c-8.709,0-15.77-7.061-15.77-15.77V59.4c0-8.709,7.061-15.77,15.77-15.77
	h237.602c8.709,0,15.77,7.061,15.77,15.77v94.62C390.571,162.73,383.51,169.791,374.801,169.791z"/>
<g>
	<polygon style="fill:#FFFFFF;" points="170.842,43.63 121.429,93.043 121.429,112.493 190.292,43.63 	"/>
	<path style="fill:#FFFFFF;" d="M217.626,43.63l-96.197,96.197v14.193c0,5.566,2.891,10.448,7.246,13.255L252.32,43.63H217.626z"/>
</g>
<path style="fill:#FFD652;" d="M172.945,270.537h-35.745c-8.709,0-15.77-7.061-15.77-15.77v-35.563c0-8.709,7.061-15.77,15.77-15.77
	h35.745c8.709,0,15.77,7.061,15.77,15.77v35.563C188.715,263.476,181.654,270.537,172.945,270.537z"/>
<path style="fill:#FB9D46;" d="M142.456,254.767v-35.563c0-8.709,7.061-15.77,15.77-15.77h-21.027c-8.709,0-15.77,7.061-15.77,15.77
	v35.563c0,8.709,7.061,15.77,15.77,15.77h21.027C149.517,270.537,142.456,263.476,142.456,254.767z"/>
<path style="fill:#FFD652;" d="M172.945,371.647h-35.745c-8.709,0-15.77-7.061-15.77-15.77v-35.563c0-8.709,7.061-15.77,15.77-15.77
	h35.745c8.709,0,15.77,7.061,15.77,15.77v35.563C188.715,364.586,181.654,371.647,172.945,371.647z"/>
<path style="fill:#FB9D46;" d="M142.456,355.877v-35.563c0-8.709,7.061-15.77,15.77-15.77h-21.027c-8.709,0-15.77,7.061-15.77,15.77
	v35.563c0,8.709,7.061,15.77,15.77,15.77h21.027C149.517,371.647,142.456,364.586,142.456,355.877z"/>
<path style="fill:#FFD652;" d="M273.873,371.647h-35.745c-8.709,0-15.77-7.061-15.77-15.77v-35.563c0-8.709,7.061-15.77,15.77-15.77
	h35.745c8.709,0,15.77,7.061,15.77,15.77v35.563C289.643,364.586,282.582,371.647,273.873,371.647z"/>
<path style="fill:#FB9D46;" d="M243.384,355.877v-35.563c0-8.709,7.061-15.77,15.77-15.77h-21.027c-8.709,0-15.77,7.061-15.77,15.77
	v35.563c0,8.709,7.061,15.77,15.77,15.77h21.027C250.445,371.647,243.384,364.586,243.384,355.877z"/>
<path style="fill:#FFD652;" d="M172.945,472.393h-35.745c-8.709,0-15.77-7.061-15.77-15.77V421.06c0-8.709,7.061-15.77,15.77-15.77
	h35.745c8.709,0,15.77,7.061,15.77,15.77v35.563C188.715,465.332,181.654,472.393,172.945,472.393z"/>
<path style="fill:#FB9D46;" d="M142.456,456.623V421.06c0-8.709,7.061-15.77,15.77-15.77h-21.027c-8.709,0-15.77,7.061-15.77,15.77
	v35.563c0,8.709,7.061,15.77,15.77,15.77h21.027C149.517,472.393,142.456,465.332,142.456,456.623z"/>
<path style="fill:#FFD652;" d="M273.873,270.537h-35.745c-8.709,0-15.77-7.061-15.77-15.77v-35.563c0-8.709,7.061-15.77,15.77-15.77
	h35.745c8.709,0,15.77,7.061,15.77,15.77v35.563C289.643,263.476,282.582,270.537,273.873,270.537z"/>
<path style="fill:#FB9D46;" d="M243.384,254.767v-35.563c0-8.709,7.061-15.77,15.77-15.77h-21.027c-8.709,0-15.77,7.061-15.77,15.77
	v35.563c0,8.709,7.061,15.77,15.77,15.77h21.027C250.445,270.537,243.384,263.476,243.384,254.767z"/>
<path style="fill:#5AC779;" d="M374.801,371.647h-35.745c-8.709,0-15.77-7.061-15.77-15.77V219.203c0-8.709,7.061-15.77,15.77-15.77
	h35.745c8.709,0,15.77,7.061,15.77,15.77v136.674C390.571,364.586,383.51,371.647,374.801,371.647z"/>
<path style="fill:#00A085;" d="M344.312,355.877V219.203c0-8.709,7.061-15.77,15.77-15.77h-21.027c-8.709,0-15.77,7.061-15.77,15.77
	v136.674c0,8.709,7.061,15.77,15.77,15.77h21.027C351.373,371.647,344.312,364.586,344.312,355.877z"/>
<path style="fill:#FF7452;" d="M374.801,472.393h-35.745c-8.709,0-15.77-7.061-15.77-15.77V421.06c0-8.709,7.061-15.77,15.77-15.77
	h35.745c8.709,0,15.77,7.061,15.77,15.77v35.563C390.571,465.332,383.51,472.393,374.801,472.393z"/>
<path style="fill:#E24642;" d="M344.312,456.623V421.06c0-8.709,7.061-15.77,15.77-15.77h-21.027c-8.709,0-15.77,7.061-15.77,15.77
	v35.563c0,8.709,7.061,15.77,15.77,15.77h21.027C351.373,472.393,344.312,465.332,344.312,456.623z"/>
<path style="fill:#FFD652;" d="M273.873,472.393h-35.745c-8.709,0-15.77-7.061-15.77-15.77V421.06c0-8.709,7.061-15.77,15.77-15.77
	h35.745c8.709,0,15.77,7.061,15.77,15.77v35.563C289.643,465.332,282.582,472.393,273.873,472.393z"/>
<path style="fill:#FB9D46;" d="M243.384,456.623V421.06c0-8.709,7.061-15.77,15.77-15.77h-21.027c-8.709,0-15.77,7.061-15.77,15.77
	v35.563c0,8.709,7.061,15.77,15.77,15.77h21.027C250.445,472.393,243.384,465.332,243.384,456.623z"/>
<path style="fill:#00A085;" d="M340.107,98.825h-6.834V76.747h17.347c4.355,0,7.885-3.529,7.885-7.885
	c0-4.356-3.53-7.885-7.885-7.885h-17.347v-2.628c0-4.356-3.53-7.885-7.885-7.885c-4.355,0-7.885,3.529-7.885,7.885v2.628h-6.834
	c-10.144,0-18.398,8.254-18.398,18.398v16.821c0,10.144,8.254,18.398,18.398,18.398h6.834v22.078h-17.347
	c-4.355,0-7.885,3.529-7.885,7.885c0,4.356,3.53,7.885,7.885,7.885h17.347v2.628c0,4.356,3.53,7.885,7.885,7.885
	c4.355,0,7.885-3.529,7.885-7.885v-2.628h6.834c10.144,0,18.398-8.254,18.398-18.398v-16.821
	C358.505,107.079,350.251,98.825,340.107,98.825z M310.669,98.825c-1.449,0-2.628-1.179-2.628-2.628V79.376
	c0-1.45,1.18-2.628,2.628-2.628h6.834v22.078H310.669z M342.735,134.045c0,1.45-1.18,2.628-2.628,2.628h-6.834v-22.078h6.834
	c1.449,0,2.628,1.179,2.628,2.628V134.045z"/>
<path style="fill:#666666;" d="M101.057,472.575V39.425C101.057,17.686,118.743,0,140.482,0H106.71
	c-21.74,0-39.425,17.686-39.425,39.425v433.15c0,21.74,17.686,39.425,39.425,39.425h33.772
	C118.744,512,101.057,494.314,101.057,472.575z"/>
<g>
	<path style="fill:#4C4C4C;" d="M155.072,257.577c-4.355,0-7.885-3.529-7.885-7.885V224.46c0-4.356,3.53-7.885,7.885-7.885
		c4.355,0,7.885,3.529,7.885,7.885v25.232C162.957,254.048,159.426,257.577,155.072,257.577z"/>
	<path style="fill:#4C4C4C;" d="M167.688,244.961h-25.232c-4.355,0-7.885-3.529-7.885-7.885c0-4.356,3.53-7.885,7.885-7.885h25.232
		c4.355,0,7.885,3.529,7.885,7.885C175.573,241.432,172.043,244.961,167.688,244.961z"/>
	<path style="fill:#4C4C4C;" d="M163.992,354.81c-2.018,0-4.036-0.77-5.575-2.309l-17.842-17.842c-3.079-3.08-3.079-8.072,0-11.151
		c3.079-3.078,8.072-3.078,11.15,0l17.842,17.842c3.079,3.08,3.079,8.072,0,11.152C168.029,354.04,166.011,354.81,163.992,354.81z"
		/>
	<path style="fill:#4C4C4C;" d="M146.151,354.81c-2.018,0-4.036-0.77-5.575-2.309c-3.079-3.08-3.079-8.072,0-11.152l17.842-17.842
		c3.079-3.078,8.072-3.078,11.15,0c3.079,3.08,3.079,8.072,0,11.151l-17.842,17.842C150.187,354.04,148.169,354.81,146.151,354.81z"
		/>
	<path style="fill:#4C4C4C;" d="M247.589,354.81c-2.018,0-4.036-0.77-5.575-2.309c-3.079-3.08-3.079-8.072,0-11.152l17.842-17.842
		c3.079-3.078,8.072-3.078,11.15,0c3.079,3.08,3.079,8.072,0,11.151l-17.842,17.842C251.625,354.04,249.607,354.81,247.589,354.81z"
		/>
	<path style="fill:#4C4C4C;" d="M145.61,456.789c-2.018,0-4.036-0.77-5.575-2.309c-3.079-3.08-3.079-8.072,0-11.151l17.842-17.842
		c3.079-3.078,8.072-3.078,11.15,0c3.079,3.08,3.079,8.072,0,11.152l-17.842,17.842C149.646,456.02,147.627,456.789,145.61,456.789z
		"/>
	<path style="fill:#4C4C4C;" d="M141.405,435.253c-2.018,0-4.036-0.77-5.575-2.309c-3.079-3.08-3.079-8.072,0-11.152l2.103-2.103
		c3.079-3.078,8.072-3.078,11.15,0c3.079,3.08,3.079,8.072,0,11.151l-2.103,2.103C145.441,434.483,143.422,435.253,141.405,435.253z
		"/>
	<path style="fill:#4C4C4C;" d="M166.637,460.485c-2.018,0-4.036-0.77-5.575-2.309c-3.079-3.08-3.079-8.072,0-11.152l2.103-2.103
		c3.079-3.078,8.072-3.078,11.15,0c3.079,3.08,3.079,8.072,0,11.152l-2.103,2.103C170.673,459.715,168.654,460.485,166.637,460.485z
		"/>
	<path style="fill:#4C4C4C;" d="M268.616,246.012h-25.232c-4.355,0-7.885-3.529-7.885-7.885s3.53-7.885,7.885-7.885h25.232
		c4.355,0,7.885,3.529,7.885,7.885S272.971,246.012,268.616,246.012z"/>
	<path style="fill:#4C4C4C;" d="M369.544,278.604h-25.232c-4.355,0-7.885-3.529-7.885-7.885s3.53-7.885,7.885-7.885h25.232
		c4.355,0,7.885,3.529,7.885,7.885S373.899,278.604,369.544,278.604z"/>
	<path style="fill:#4C4C4C;" d="M369.544,303.836h-25.232c-4.355,0-7.885-3.529-7.885-7.885c0-4.356,3.53-7.885,7.885-7.885h25.232
		c4.355,0,7.885,3.529,7.885,7.885C377.429,300.306,373.899,303.836,369.544,303.836z"/>
	<path style="fill:#4C4C4C;" d="M357.979,461.536c-11.884,0-21.552-9.668-21.552-21.552s9.668-21.552,21.552-21.552
		c5.591,0,10.891,2.131,14.924,6.002c3.141,3.016,3.243,8.007,0.228,11.148c-3.015,3.141-8.006,3.243-11.148,0.229
		c-1.081-1.038-2.502-1.61-4.002-1.61c-3.189,0-5.782,2.594-5.782,5.782s2.594,5.782,5.782,5.782c1.5,0,2.922-0.572,4.004-1.61
		c3.142-3.014,8.133-2.912,11.148,0.231c3.015,3.142,2.911,8.133-0.231,11.148C368.868,459.405,363.568,461.536,357.979,461.536z"/>
	<path style="fill:#4C4C4C;" d="M256,446.817c-4.355,0-7.885-3.529-7.885-7.885v-2.103c0-4.356,3.53-7.885,7.885-7.885
		c4.355,0,7.885,3.529,7.885,7.885v2.103C263.885,443.288,260.355,446.817,256,446.817z"/>
</g>
</svg>