<?xml version="1.0" encoding="utf-8"?>
<!-- Generator: Adobe Illustrator 22.0.0, SVG Export Plug-In . SVG Version: 6.00 Build 0)  -->
<svg version="1.1" id="Icon_Set" xmlns="http://www.w3.org/2000/svg" xmlns:xlink="http://www.w3.org/1999/xlink" x="0px" y="0px"
	 viewBox="0 0 64 64" style="enable-background:new 0 0 64 64;" xml:space="preserve">
<style type="text/css">
	.st0{fill:#40C4FF;}
	.st1{fill:#263238;}
	.st2{fill:#FFD740;}
	.st3{fill:#FF5252;}
	.st4{fill:#4DB6AC;}
	.st5{fill:#FFFFFF;}
	.st6{fill:#4FC3F7;}
	.st7{fill:#37474F;}
</style>
<g>
	<g>
		<path class="st1" d="M51.5,47h-35c-0.827,0-1.5-0.673-1.5-1.5v-1c0-0.276,0.224-0.5,0.5-0.5s0.5,0.224,0.5,0.5v1
			c0,0.276,0.224,0.5,0.5,0.5h35c0.275,0,0.5-0.224,0.5-0.5v-19c0-0.276-0.225-0.5-0.5-0.5h-1c-0.276,0-0.5-0.224-0.5-0.5
			s0.224-0.5,0.5-0.5h1c0.827,0,1.5,0.673,1.5,1.5v19C53,46.327,52.327,47,51.5,47z"/>
	</g>
	<g>
		<path class="st4" d="M48.5,21.5c0-0.552-0.448-1-1-1h-35c-0.552,0-1,0.448-1,1v20c0,0.552,0.448,1,1,1h35c0.552,0,1-0.448,1-1
			V21.5z"/>
		<path class="st1" d="M47.5,43h-35c-0.827,0-1.5-0.673-1.5-1.5v-20c0-0.827,0.673-1.5,1.5-1.5h35c0.827,0,1.5,0.673,1.5,1.5v20
			C49,42.327,48.327,43,47.5,43z M12.5,21c-0.276,0-0.5,0.224-0.5,0.5v20c0,0.276,0.224,0.5,0.5,0.5h35c0.275,0,0.5-0.224,0.5-0.5
			v-20c0-0.276-0.225-0.5-0.5-0.5H12.5z"/>
	</g>
	<g>
		<circle class="st5" cx="30" cy="31.5" r="7"/>
		<path class="st1" d="M30,39c-4.136,0-7.5-3.364-7.5-7.5S25.864,24,30,24s7.5,3.364,7.5,7.5S34.136,39,30,39z M30,25
			c-3.584,0-6.5,2.916-6.5,6.5S26.416,38,30,38s6.5-2.916,6.5-6.5S33.584,25,30,25z"/>
	</g>
	<g>
		<path class="st1" d="M30.75,34.5H28c-0.276,0-0.5-0.224-0.5-0.5s0.224-0.5,0.5-0.5h2.75c0.414,0,0.75-0.336,0.75-0.75
			S31.164,32,30.75,32h-1.5c-0.965,0-1.75-0.785-1.75-1.75s0.785-1.75,1.75-1.75h2.25c0.276,0,0.5,0.224,0.5,0.5s-0.224,0.5-0.5,0.5
			h-2.25c-0.414,0-0.75,0.336-0.75,0.75S28.836,31,29.25,31h1.5c0.965,0,1.75,0.785,1.75,1.75S31.715,34.5,30.75,34.5z"/>
	</g>
	<g>
		<path class="st1" d="M30,29.5c-0.276,0-0.5-0.224-0.5-0.5v-1.5c0-0.276,0.224-0.5,0.5-0.5s0.5,0.224,0.5,0.5V29
			C30.5,29.277,30.276,29.5,30,29.5z"/>
	</g>
	<g>
		<path class="st1" d="M30,36c-0.276,0-0.5-0.224-0.5-0.5V34c0-0.276,0.224-0.5,0.5-0.5s0.5,0.224,0.5,0.5v1.5
			C30.5,35.777,30.276,36,30,36z"/>
	</g>
	<g>
		<path class="st1" d="M42.186,39.5H17.814c-0.193,0-0.368-0.111-0.451-0.285c-0.723-1.514-1.981-2.679-3.542-3.278
			c-0.193-0.074-0.321-0.26-0.321-0.467v-7.94c0-0.207,0.127-0.393,0.321-0.467c1.562-0.6,2.82-1.765,3.543-3.279
			c0.083-0.174,0.258-0.285,0.451-0.285h24.371c0.192,0,0.368,0.111,0.451,0.285c0.723,1.515,1.98,2.679,3.543,3.279
			c0.192,0.074,0.32,0.26,0.32,0.467v7.94c0,0.207-0.128,0.393-0.32,0.467c-1.562,0.6-2.82,1.765-3.543,3.278
			C42.554,39.389,42.378,39.5,42.186,39.5z M18.123,38.5h23.754c0.797-1.505,2.066-2.684,3.623-3.365v-7.27
			c-1.557-0.681-2.826-1.86-3.623-3.365H18.123c-0.797,1.505-2.066,2.685-3.623,3.365v7.27C16.056,35.816,17.326,36.995,18.123,38.5
			z"/>
	</g>
	<g>
		<polygon class="st3" points="62.5,53 56.5,47 56.5,50.5 41.5,50.5 41.5,55.5 56.5,55.5 56.5,59 		"/>
		<path class="st1" d="M56.5,59.5c-0.064,0-0.13-0.012-0.191-0.038C56.122,59.385,56,59.202,56,59v-3H41.5
			c-0.276,0-0.5-0.224-0.5-0.5v-5c0-0.276,0.224-0.5,0.5-0.5H56v-3c0-0.202,0.122-0.385,0.309-0.462
			c0.187-0.078,0.402-0.034,0.545,0.108l6,6c0.195,0.195,0.195,0.512,0,0.707l-6,6C56.758,59.449,56.63,59.5,56.5,59.5z M42,55h14.5
			c0.276,0,0.5,0.224,0.5,0.5v2.293L61.793,53L57,48.207V50.5c0,0.276-0.224,0.5-0.5,0.5H42V55z"/>
	</g>
	<g>
		<polygon class="st0" points="1.5,14 7.5,20 7.5,16.5 22.5,16.5 22.5,11.5 7.5,11.5 7.5,8 		"/>
		<path class="st1" d="M7.5,20.5c-0.13,0-0.258-0.051-0.354-0.146l-6-6c-0.195-0.195-0.195-0.512,0-0.707l6-6
			C7.29,7.503,7.504,7.459,7.691,7.538C7.878,7.615,8,7.798,8,8v3h14.5c0.276,0,0.5,0.224,0.5,0.5v5c0,0.276-0.224,0.5-0.5,0.5H8v3
			c0,0.202-0.122,0.385-0.309,0.462C7.629,20.488,7.564,20.5,7.5,20.5z M2.207,14L7,18.793V16.5C7,16.224,7.224,16,7.5,16H22v-4H7.5
			C7.224,12,7,11.776,7,11.5V9.207L2.207,14z"/>
	</g>
	<g>
		<path class="st1" d="M59,12.5h-4c-0.276,0-0.5-0.224-0.5-0.5s0.224-0.5,0.5-0.5h4c0.276,0,0.5,0.224,0.5,0.5S59.276,12.5,59,12.5z
			"/>
	</g>
	<g>
		<path class="st1" d="M53,7.5h-4c-0.276,0-0.5-0.224-0.5-0.5s0.224-0.5,0.5-0.5h4c0.276,0,0.5,0.224,0.5,0.5S53.276,7.5,53,7.5z"/>
	</g>
	<g>
		<path class="st1" d="M51,9.5c-0.276,0-0.5-0.224-0.5-0.5V5c0-0.276,0.224-0.5,0.5-0.5s0.5,0.224,0.5,0.5v4
			C51.5,9.276,51.276,9.5,51,9.5z"/>
	</g>
	<g>
		<path class="st1" d="M57,14.5c-0.276,0-0.5-0.224-0.5-0.5v-4c0-0.276,0.224-0.5,0.5-0.5s0.5,0.224,0.5,0.5v4
			C57.5,14.276,57.276,14.5,57,14.5z"/>
	</g>
	<g>
		<path class="st1" d="M33,51H19c-0.276,0-0.5-0.224-0.5-0.5S18.724,50,19,50h14c0.276,0,0.5,0.224,0.5,0.5S33.276,51,33,51z"/>
	</g>
	<g>
		<path class="st1" d="M17,51h-2c-0.276,0-0.5-0.224-0.5-0.5S14.724,50,15,50h2c0.276,0,0.5,0.224,0.5,0.5S17.276,51,17,51z"/>
	</g>
	<g>
		<path class="st1" d="M45,17H31c-0.276,0-0.5-0.224-0.5-0.5S30.724,16,31,16h14c0.276,0,0.5,0.224,0.5,0.5S45.276,17,45,17z"/>
	</g>
	<g>
		<path class="st1" d="M49,17h-2c-0.276,0-0.5-0.224-0.5-0.5S46.724,16,47,16h2c0.276,0,0.5,0.224,0.5,0.5S49.276,17,49,17z"/>
	</g>
</g>
</svg>
